<?xml version="1.0" ?><!DOCTYPE svg  PUBLIC '-//W3C//DTD SVG 1.1//EN'  'http://www.w3.org/Graphics/SVG/1.1/DTD/svg11.dtd'><svg enable-background="new 0 0 48 48" id="Layer_1" version="1.1" viewBox="0 0 48 48" xml:space="preserve" xmlns="http://www.w3.org/2000/svg" xmlns:xlink="http://www.w3.org/1999/xlink"><g><g><circle cx="10.6" cy="7.9" fill="#010101" r="4.3"/><path d="M27.1,15.3c-3.5-1.7-13.7-2.3-14.9-2.4c-0.1,0-0.2,0-0.3,0c0,0-0.1,0-0.1,0h-0.6c0.2,0.1,0.4,0.3,0.4,0.5    c0,0.2-0.2,0.4-0.5,0.5l0.8,7.4l-1.2,1.1l-1.2-1.1l0.8-7.4c-0.3-0.1-0.5-0.3-0.5-0.5c0-0.2,0.1-0.4,0.4-0.5H9.5    c-0.6,0-1.2,0.2-1.7,0.5c-0.1,0-0.2,0.1-0.2,0.1c0,0,0,0-0.1,0C6.2,14.2,3,16.8,0.6,24.9c-0.3,0.9,0.2,1.8,1.1,2    C1.9,27,2.1,27,2.3,27c0.6-0.1,1.2-0.5,1.4-1.1c0.7-2.4,1.5-4.2,2.2-5.5v5.2v3v13.8c0,1.1,0.9,2,2,2c1.1,0,2-0.9,2-2V28.5h1.2    v13.8c0,1.1,0.9,2,2,2c1.1,0,2-0.9,2-2V28.5v-3v-8.8C19,17,23.7,18,25.6,18.5c0.2,0,0.4,0.1,0.6,0.1c0.7,0.1,1.4-0.3,1.7-1    C28.4,16.8,28,15.7,27.1,15.3z" fill="#010101"/></g><g><path d="M47.5,28.4H18.4V9.2h29.1V28.4z M20.2,26.6h25.6V10.9H20.2V26.6z" fill="#010101"/></g><g><polygon fill="#010101" points="23.2,44.4 28.1,27.8 26.4,27.3 21.4,44.4   "/><polygon fill="#010101" points="44.5,44.4 39.5,27.3 37.8,27.8 42.7,44.4   "/></g><rect fill="#010101" height="14.3" width="1.7" x="32.1" y="27.5"/><rect fill="#010101" height="4.7" width="1.7" x="32.1" y="6.3"/><rect fill="#010101" height="11.1" transform="matrix(0.3892 0.9211 -0.9211 0.3892 33.3427 -20.1657)" width="1.3" x="31.2" y="9.5"/><path d="M37.3,22.1v-0.7h-0.8c-0.1-0.4-0.2-0.7-0.4-1l0.6-0.6l-0.5-0.5L35.6,20c-0.3-0.2-0.6-0.3-1-0.4v-0.8h-0.7   v0.8c-0.4,0.1-0.7,0.2-1,0.4l-0.6-0.6l-0.5,0.5l0.6,0.6c-0.2,0.3-0.3,0.6-0.4,1h-0.9v0.7h0.8c0,0.4,0.2,0.7,0.4,1l-0.6,0.6l0.5,0.5   l0.6-0.6c0.3,0.2,0.6,0.4,1,0.4v0.8h0.7v-0.8c0.4,0,0.7-0.2,1-0.4l0.5,0.5l0.5-0.5l-0.5-0.5c0.2-0.3,0.4-0.7,0.4-1H37.3z    M34.6,23.3c-1,0.2-1.9-0.7-1.7-1.7c0.1-0.6,0.6-1,1.1-1.1c1-0.2,1.9,0.7,1.7,1.7C35.6,22.7,35.1,23.2,34.6,23.3z" fill="#010101"/><path d="M44.2,19.1v-0.7h-0.8c-0.1-0.4-0.2-0.7-0.4-1l0.6-0.6l-0.5-0.5L42.5,17c-0.3-0.2-0.6-0.3-1-0.4v-0.8h-0.7   v0.8c-0.4,0.1-0.7,0.2-1,0.4l-0.6-0.6l-0.5,0.5l0.6,0.6c-0.2,0.3-0.3,0.6-0.4,1h-0.9v0.7H39c0,0.4,0.2,0.7,0.4,1l-0.6,0.6l0.5,0.5   l0.6-0.6c0.3,0.2,0.6,0.4,1,0.4v0.8h0.7V21c0.4,0,0.7-0.2,1-0.4l0.5,0.5l0.5-0.5L43,20.2c0.2-0.3,0.4-0.7,0.4-1H44.2z M41.5,20.3   c-1,0.2-1.9-0.7-1.7-1.7c0.1-0.6,0.6-1,1.1-1.1c1-0.2,1.9,0.7,1.7,1.7C42.5,19.7,42.1,20.2,41.5,20.3z" fill="#010101"/></g></svg>