<?xml version="1.0" ?><!DOCTYPE svg  PUBLIC '-//W3C//DTD SVG 1.1//EN'  'http://www.w3.org/Graphics/SVG/1.1/DTD/svg11.dtd'><svg enable-background="new 0 0 64 64" height="64px" id="Layer_1" version="1.1" viewBox="0 0 64 64" width="64px" xml:space="preserve" xmlns="http://www.w3.org/2000/svg" xmlns:xlink="http://www.w3.org/1999/xlink"><g><g><g><path d="M57.547,29.566c-1.454,0.225-2.812,0.426-4.162,0.676c-0.436,0.081-0.933,0.251-1.242,0.547     c3.331-4.449,2.012-8.884,2.012-8.884c-3.249-0.911-4.475-4.043-4.475-4.043c-2.311,5.428-6.786,5.191-6.786,5.191     c-0.902,3.451,0.96,6.296,1.916,7.475c-0.251-0.146-0.556-0.239-0.832-0.287c-1.612-0.282-3.235-0.507-4.81-0.747     c-0.293-0.098-0.04-0.313-0.019-0.335c1.584-1.625,2.072-3.602,2.02-5.814c-0.029-1.201,0-2.443,0.27-3.606     c0.846-3.647,3.998-5.869,7.799-5.642c3.464,0.206,6.34,2.945,6.791,6.513c0.107,0.84,0.118,1.697,0.113,2.545     c-0.012,2.781,0.147,3.536,1.694,5.652C57.982,29.007,58.151,29.447,57.547,29.566z" fill="#3A4652"/><path d="M63.901,50.876c0.041,1.172-0.518,1.697-1.786,1.697c-4.54,0.007-9.086,0.007-13.626,0.007     c-2.236-0.027-4.465-0.061-6.7-0.089l-0.041-0.136c-0.327-1.234-0.941-2.331-1.493-3.238c-0.389-0.634-0.852-1.377-1.35-2.079     c-1.336-1.909-3.013-3.367-4.887-4.287c0.02-0.136,0.048-0.279,0.075-0.416c0.17-0.879,0.3-1.759,0.477-2.631     c0.893-0.395,1.65-1.363,1.65-2.283v-1.438c0-0.136-0.014-0.273-0.034-0.402c0.034-0.027,0.068-0.055,0.102-0.082     c0.416-0.307,0.975-0.566,1.718-0.804c1.738-0.552,3.524-0.941,5.289-1.397c-0.027,0.02-0.048,0.048-0.075,0.068     c0.239-0.089,0.498,0.027,0.593,0.259c0.757,1.84,2.706,3.081,4.853,3.081c2.14,0,4.09-1.234,4.846-3.081     c0.102-0.239,0.375-0.348,0.613-0.252c0.041,0.02,0.075,0.048,0.109,0.075c1.663,0.45,3.34,0.845,4.969,1.384     c0.743,0.252,1.295,0.518,1.704,0.825c0.832,0.634,1.206,2.202,1.438,3.156c0.3,1.22,0.443,2.474,0.668,3.715     C63.519,45.28,63.806,48.075,63.901,50.876z" fill="#3A4652"/></g></g><path d="M34.004,34.913c-0.001-0.018-0.002-0.035-0.003-0.052c-0.165-2.754-1.731-4.448-4.311-4.704   c-0.008-0.003-0.016-0.006-0.024-0.008c0.014,0.005-0.029-0.016-0.039-0.018c-0.098-0.017-0.202-0.009-0.302-0.004   c-0.001,0-0.003,0-0.004,0c-0.122-0.006-0.242-0.008-0.359-0.008c-0.101,0-0.196,0.007-0.294,0.011c-0.04,0-0.08,0-0.12,0   c-0.03,0-0.183-0.029-0.208,0.007c0,0-0.005,0.01-0.001,0.011c-2.625,0.23-4.193,1.935-4.337,4.765   c-0.491,0.113-0.852,0.551-0.852,1.073v1.437c0,0.762,0.798,1.101,1.101,1.101h0.118c0.486,1.778,1.404,3.198,2.664,4.114   c0.613,0.445,1.17,0.653,1.754,0.653c0.677,0,1.392-0.288,2.185-0.881c1.094-0.818,2.048-2.262,2.573-3.885h0.212   c0.475,0,1.101-0.693,1.101-1.101v-1.437C34.856,35.464,34.495,35.026,34.004,34.913z M34.423,37.423   c0,0.189-0.445,0.668-0.668,0.668h-0.532l-0.047,0.154c-0.487,1.6-1.409,3.027-2.466,3.818c-0.715,0.535-1.344,0.795-1.925,0.795   c-0.488,0-0.964-0.181-1.499-0.57c-1.215-0.884-2.094-2.278-2.542-4.033l-0.041-0.163H24.25c-0.099,0-0.668-0.184-0.668-0.668   v-1.437c0-0.358,0.28-0.651,0.637-0.667l0.101-0.004c0.013,0.365-0.022,1.122,0.458,1.224c0.128,0.027,0.631-0.128,0.636-0.311   l0.003-0.098c-0.07-2.452,1.119-2.452,2.116-1.43c0.909,0.932,2.047,0.913,2.937,0c0.997-1.022,2.186-1.022,2.116,1.43   c0,0,0.003,0.096,0.003,0.098c0.006,0.227,0.464,0.33,0.616,0.282c0.414-0.132,0.554-0.806,0.511-1.179   c0.374-0.066,0.706,0.294,0.706,0.655V37.423z" fill="#2B7ABF"/><path d="M39.092,49.832c-0.417-0.68-0.84-1.358-1.298-2.01c-1.365-1.941-3.212-3.528-5.482-4.299   c-0.044-0.014-0.089-0.024-0.156-0.042c-0.86,2.33-3.316,4.56-3.316,4.56s-1.103-0.588-3.316-4.56   c-0.066,0.018-0.112,0.028-0.156,0.042c-2.27,0.77-4.117,2.358-5.482,4.299c-0.459,0.652-0.882,1.33-1.298,2.01   c-0.549,0.896-1.069,1.849-1.34,2.871v0.113l1.948,0.015h9.643h9.643l1.948-0.015v-0.113   C40.161,51.681,39.641,50.728,39.092,49.832z" fill="#2B7ABF"/><path d="M23.3,39.662c-0.791-0.346-1.513-1.117-1.513-2.244v-1.433c0-0.771,0.346-1.473,0.929-1.928   c0.119-0.88,0.386-1.671,0.761-2.343l-0.9-0.247c-0.089-0.04-0.178-0.069-0.277-0.099c-0.465-0.138-0.929-0.277-1.384-0.415   c-0.01,0-0.01,0-0.02,0c-0.03,0.099-0.049,0.198-0.079,0.287c-0.366,1.344-0.702,2.699-1.117,4.024   c-0.494,1.582-1.048,3.154-1.592,4.725c-0.059,0.178-0.148,0.346-0.227,0.514c-0.099-0.712-0.227-1.651-0.346-2.57   c-0.227-1.73-0.435-3.401-0.435-3.46c0.089-0.198,0.158-0.376,0.247-0.564c0.01-0.02,0.02-0.049,0.04-0.069   c0.04-0.119,0.089-0.237,0.138-0.336c0.03-0.04,0.049-0.089,0.079-0.129c0.069-0.148,0.158-0.297,0.158-0.484v-0.059   c-0.01-0.03-0.01-0.059-0.02-0.089v-0.01c-0.02-0.099-0.059-0.188-0.089-0.267l-0.03-0.049c-0.01-0.02-0.01-0.04-0.02-0.069   s-0.04-0.089-0.069-0.129l-0.01-0.02c-0.01-0.01-0.03-0.03-0.03-0.04c-0.03-0.049-0.059-0.089-0.099-0.119   c-0.059-0.04-0.138-0.059-0.188-0.069h-0.01h-0.109c-0.04-0.03-0.089-0.03-0.109-0.03c-0.168-0.01-0.603-0.01-1.157-0.01   c-0.415,0-0.781,0-0.998,0.01H14.67c-0.04,0-0.079,0-0.119,0.03h-0.109c-0.079,0.01-0.198,0.04-0.287,0.188   c-0.01,0.01-0.01,0.03-0.03,0.049l-0.01,0.01c-0.01,0.01-0.01,0.02-0.02,0.03c-0.099,0.099-0.158,0.237-0.158,0.395   c-0.02,0.069-0.04,0.158-0.04,0.247c0,0.188,0.079,0.336,0.158,0.484c0.01,0.01,0.02,0.02,0.02,0.04   c0.02,0.03,0.04,0.069,0.049,0.089c0.049,0.099,0.099,0.218,0.148,0.336c0.01,0.01,0.02,0.03,0.03,0.049   c0.089,0.198,0.168,0.386,0.247,0.583c0,0.04-0.04,0.415-0.119,0.989c-0.168,1.315-0.475,3.618-0.662,5.042   c-0.089-0.168-0.168-0.336-0.227-0.514c-0.554-1.572-1.107-3.144-1.602-4.725c-0.405-1.335-0.751-2.689-1.107-4.034   c-0.02-0.059-0.04-0.119-0.049-0.178c-0.346,0.109-0.692,0.217-1.038,0.316c-0.099,0.03-0.188,0.059-0.277,0.099   c-1.77,0.484-3.549,0.969-5.319,1.463c-2.758,0.751-2.472,3.826-2.768,6.1c-0.494,3.856-1.087,7.691-1.285,11.576   c-0.02,0.405,0.04,0.741,0.178,0.998c0.237,0.524,0.781,0.771,1.651,0.781c4.656,0.069,9.303,0.129,13.959,0.198v-0.059l0.04-0.168   c0.049-0.188,0.109-0.366,0.168-0.544c0.336-1.018,0.86-1.928,1.335-2.699c0.386-0.633,0.84-1.364,1.344-2.076   c1.602-2.264,3.648-3.905,5.971-4.735C24.131,41.54,23.646,40.66,23.3,39.662z" fill="#3A4652"/><path d="M23.702,19.852v-0.011c-0.007-0.082-0.023-0.167-0.048-0.249c-0.102-0.327-0.36-0.606-0.81-0.602   c-0.028,0-0.058-0.016-0.104-0.029c0.039-0.484,0.088-0.969,0.115-1.453c0.046-0.855,0.143-1.71,0.104-2.563   c-0.007-0.142-0.021-0.282-0.042-0.418c-0.113-0.742-0.434-1.384-0.917-1.933c-0.261-0.295-0.568-0.566-0.917-0.811   c-0.012-0.009-0.025-0.018-0.037-0.027c-0.065-0.047-0.132-0.091-0.199-0.133c-0.522-0.338-1.078-0.591-1.66-0.775   c-0.095-0.031-0.192-0.06-0.289-0.087c-0.432-0.12-0.875-0.207-1.332-0.262c-0.441-0.053-0.877-0.08-1.311-0.071   c-0.005,0-0.009,0.002-0.014,0.002c-0.046-0.011-0.09-0.022-0.134-0.033c-0.009-0.002-0.021-0.004-0.03-0.007   c-0.803-0.195-3.052-0.949-3.186-0.92c0.025,0.284,0.33,0.871,0.422,1.291c-0.097,0.027-0.194,0.056-0.289,0.087   c-0.145-0.038-0.291-0.076-0.436-0.113c-0.626-0.167-1.244-0.347-1.875-0.48c-0.277-0.038-0.24-0.069-0.159,0.102   c0.118,0.271,0.609,0.909,0.81,1.266c-0.067,0.042-0.134,0.087-0.199,0.133c-0.012,0.009-0.025,0.018-0.037,0.027   c-0.268,0.022-0.593,0.002-0.937-0.007h-0.002c-0.173-0.024-0.219-0.044-0.205-0.004c-0.386-0.009-0.785,0.009-1.15,0.118   c0.307,0.124,0.988,0.509,1.378,0.706c-0.483,0.549-0.803,1.188-0.917,1.93c-0.021,0.136-0.035,0.275-0.042,0.418   c-0.039,0.853,0.058,1.708,0.104,2.563c0.028,0.484,0.076,0.969,0.115,1.453c-0.046,0.013-0.076,0.029-0.104,0.029   c-0.45-0.004-0.709,0.275-0.81,0.602c-0.012,0.042-0.023,0.082-0.03,0.124c-0.002,0.002-0.002,0.002,0,0.004   c-0.009,0.04-0.016,0.08-0.018,0.12v0.011c-0.023,0.271-0.03,0.549,0.002,0.817v0.011c0.002,0.027,0.007,0.053,0.012,0.08   c0.007,0.069,0.018,0.138,0.03,0.204c0.016,0.096,0.037,0.191,0.058,0.287c0.014,0.051,0.028,0.102,0.039,0.153   c0.025,0.091,0.053,0.18,0.083,0.267c0.141,0.418,0.349,0.811,0.637,1.173c0.266,0.335,0.48,0.402,0.859,0.275   c0.032,0.007,0.053,0.022,0.069,0.04c0.113,0.275,0.591,1.488,0.646,1.611c0.554,1.233,1.637,2.577,2.994,3.032   c0.462,0.155,0.963,0.26,1.473,0.311h0.012c0.018,0.002,0.037,0.004,0.055,0.004c0.09,0.011,0.18,0.018,0.268,0.022   c0.039,0.002,0.079,0.004,0.118,0.007c0.067,0.002,0.134,0.004,0.201,0.004h0.076c0.067,0,0.134-0.002,0.201-0.004   c0.039-0.002,0.078-0.004,0.118-0.007c0.085-0.004,0.173-0.011,0.259-0.02c0.021-0.002,0.042-0.002,0.062-0.007h0.014   c0.51-0.051,1.011-0.156,1.473-0.311c1.358-0.455,2.44-1.799,2.994-3.032c0.055-0.122,0.533-1.335,0.646-1.611   c0.016-0.018,0.037-0.033,0.069-0.04c0.379,0.127,0.593,0.06,0.859-0.275c0.508-0.638,0.766-1.373,0.859-2.164V20.67   C23.732,20.401,23.725,20.124,23.702,19.852z M16.108,27.443c-0.092,0-0.185-0.002-0.275-0.009   c-1.464-0.087-2.828-0.826-3.611-2.113c-0.63-1.031-1.182-2.117-1.531-3.268c-0.021-0.071-0.042-0.142-0.06-0.213   c-0.245-0.891-0.344-1.808-0.406-2.726c-0.002-0.033-0.005-0.067-0.009-0.098c-0.002-0.051-0.002-0.102-0.002-0.153   c-0.002-0.071-0.005-0.144-0.007-0.218c0.042-0.151,0.097-0.284,0.169-0.4c0.316-0.515,0.919-0.764,1.484-0.937   c1.45-0.444,2.842-0.949,4.248-1.495c0.139-0.053,0.275-0.109,0.413-0.162c0.36-0.142,0.72-0.287,1.076-0.44   c0.208-0.087,0.917-0.52,1.083-0.422c0.083,0.049,2.826,2.89,3.098,3.141c0.349,0.324,0.256,0.675,0.219,1.086   c-0.005,0.031-0.007,0.064-0.009,0.098c-0.062,0.917-0.162,1.835-0.406,2.726c-0.018,0.071-0.039,0.142-0.06,0.213   c-0.349,1.151-0.9,2.237-1.531,3.268c-0.783,1.286-2.147,2.026-3.611,2.113C16.291,27.441,16.201,27.443,16.108,27.443z" fill="#3A4652"/></g></svg>