<?xml version="1.0" encoding="utf-8"?>
<!-- Generator: Adobe Illustrator 19.2.0, SVG Export Plug-In . SVG Version: 6.00 Build 0)  -->
<svg version="1.1" id="Layer_1" xmlns="http://www.w3.org/2000/svg" xmlns:xlink="http://www.w3.org/1999/xlink" x="0px" y="0px"
	 viewBox="0 0 64 64" style="enable-background:new 0 0 64 64;" xml:space="preserve">
<style type="text/css">
	.st0{fill:#FFFFFF;}
</style>
<g>
	<g>
		<g>
			<path class="st0" d="M57.5,29.6c-1.5,0.2-2.8,0.4-4.2,0.7c-0.4,0.1-0.9,0.3-1.2,0.5c3.3-4.4,2-8.9,2-8.9c-3.2-0.9-4.5-4-4.5-4
				c-2.3,5.4-6.8,5.2-6.8,5.2c-0.9,3.5,1,6.3,1.9,7.5c-0.3-0.1-0.6-0.2-0.8-0.3c-1.6-0.3-3.2-0.5-4.8-0.7c-0.3-0.1,0-0.3,0-0.3
				c1.6-1.6,2.1-3.6,2-5.8c0-1.2,0-2.4,0.3-3.6c0.8-3.6,4-5.9,7.8-5.6c3.5,0.2,6.3,2.9,6.8,6.5c0.1,0.8,0.1,1.7,0.1,2.5
				c0,2.8,0.1,3.5,1.7,5.7C58,29,58.2,29.4,57.5,29.6z"/>
			<path class="st0" d="M63.9,50.9c0,1.2-0.5,1.7-1.8,1.7c-4.5,0-9.1,0-13.6,0c-2.2,0-4.5-0.1-6.7-0.1l0-0.1
				c-0.3-1.2-0.9-2.3-1.5-3.2c-0.4-0.6-0.9-1.4-1.3-2.1c-1.3-1.9-3-3.4-4.9-4.3c0-0.1,0-0.3,0.1-0.4c0.2-0.9,0.3-1.8,0.5-2.6
				c0.9-0.4,1.7-1.4,1.7-2.3V36c0-0.1,0-0.3,0-0.4c0,0,0.1-0.1,0.1-0.1c0.4-0.3,1-0.6,1.7-0.8c1.7-0.6,3.5-0.9,5.3-1.4
				c0,0,0,0-0.1,0.1c0.2-0.1,0.5,0,0.6,0.3c0.8,1.8,2.7,3.1,4.9,3.1c2.1,0,4.1-1.2,4.8-3.1c0.1-0.2,0.4-0.3,0.6-0.3
				c0,0,0.1,0,0.1,0.1c1.7,0.5,3.3,0.8,5,1.4c0.7,0.3,1.3,0.5,1.7,0.8c0.8,0.6,1.2,2.2,1.4,3.2c0.3,1.2,0.4,2.5,0.7,3.7
				C63.5,45.3,63.8,48.1,63.9,50.9z"/>
		</g>
	</g>
	<path class="st0" d="M34,34.9C34,34.9,34,34.9,34,34.9c-0.2-2.8-1.7-4.5-4.3-4.8c0,0,0,0,0,0c0,0,0,0,0,0c-0.1,0-0.2,0-0.3,0
		c0,0,0,0,0,0c-0.1,0-0.2,0-0.4,0c-0.1,0-0.2,0-0.3,0c0,0-0.1,0-0.1,0c0,0-0.2,0-0.2,0c0,0,0,0,0,0c-2.6,0.2-4.2,1.9-4.3,4.8
		c-0.5,0.1-0.9,0.6-0.9,1.1v1.4c0,0.8,0.8,1.1,1.1,1.1h0.1c0.5,1.8,1.4,3.2,2.7,4.1c0.6,0.4,1.2,0.7,1.8,0.7c0.7,0,1.4-0.3,2.2-0.9
		c1.1-0.8,2-2.3,2.6-3.9h0.2c0.5,0,1.1-0.7,1.1-1.1V36C34.9,35.5,34.5,35,34,34.9z M34.4,37.4c0,0.2-0.4,0.7-0.7,0.7h-0.5l0,0.2
		c-0.5,1.6-1.4,3-2.5,3.8c-0.7,0.5-1.3,0.8-1.9,0.8c-0.5,0-1-0.2-1.5-0.6c-1.2-0.9-2.1-2.3-2.5-4l0-0.2h-0.5c-0.1,0-0.7-0.2-0.7-0.7
		V36c0-0.4,0.3-0.7,0.6-0.7l0.1,0c0,0.4,0,1.1,0.5,1.2c0.1,0,0.6-0.1,0.6-0.3l0-0.1c-0.1-2.5,1.1-2.5,2.1-1.4c0.9,0.9,2,0.9,2.9,0
		c1-1,2.2-1,2.1,1.4c0,0,0,0.1,0,0.1c0,0.2,0.5,0.3,0.6,0.3c0.4-0.1,0.6-0.8,0.5-1.2c0.4-0.1,0.7,0.3,0.7,0.7L34.4,37.4L34.4,37.4z"
		/>
	<path class="st0" d="M39.1,49.8c-0.4-0.7-0.8-1.4-1.3-2c-1.4-1.9-3.2-3.5-5.5-4.3c0,0-0.1,0-0.2,0c-0.9,2.3-3.3,4.6-3.3,4.6
		s-1.1-0.6-3.3-4.6c-0.1,0-0.1,0-0.2,0c-2.3,0.8-4.1,2.4-5.5,4.3c-0.5,0.7-0.9,1.3-1.3,2c-0.5,0.9-1.1,1.8-1.3,2.9v0.1l1.9,0h9.6
		h9.6l1.9,0v-0.1C40.2,51.7,39.6,50.7,39.1,49.8z"/>
	<path class="st0" d="M23.3,39.7c-0.8-0.3-1.5-1.1-1.5-2.2V36c0-0.8,0.3-1.5,0.9-1.9c0.1-0.9,0.4-1.7,0.8-2.3l-0.9-0.2
		c-0.1,0-0.2-0.1-0.3-0.1c-0.5-0.1-0.9-0.3-1.4-0.4c0,0,0,0,0,0c0,0.1,0,0.2-0.1,0.3c-0.4,1.3-0.7,2.7-1.1,4c-0.5,1.6-1,3.2-1.6,4.7
		c-0.1,0.2-0.1,0.3-0.2,0.5c-0.1-0.7-0.2-1.7-0.3-2.6c-0.2-1.7-0.4-3.4-0.4-3.5c0.1-0.2,0.2-0.4,0.2-0.6c0,0,0,0,0-0.1
		c0-0.1,0.1-0.2,0.1-0.3c0,0,0-0.1,0.1-0.1c0.1-0.1,0.2-0.3,0.2-0.5v-0.1c0,0,0-0.1,0-0.1v0c0-0.1-0.1-0.2-0.1-0.3l0,0
		c0,0,0,0,0-0.1s0-0.1-0.1-0.1l0,0c0,0,0,0,0,0c0,0-0.1-0.1-0.1-0.1c-0.1,0-0.1-0.1-0.2-0.1h0h-0.1c0,0-0.1,0-0.1,0
		c-0.2,0-0.6,0-1.2,0c-0.4,0-0.8,0-1,0h-0.2c0,0-0.1,0-0.1,0h-0.1c-0.1,0-0.2,0-0.3,0.2c0,0,0,0,0,0l0,0c0,0,0,0,0,0
		c-0.1,0.1-0.2,0.2-0.2,0.4c0,0.1,0,0.2,0,0.2c0,0.2,0.1,0.3,0.2,0.5c0,0,0,0,0,0c0,0,0,0.1,0,0.1c0,0.1,0.1,0.2,0.1,0.3
		c0,0,0,0,0,0c0.1,0.2,0.2,0.4,0.2,0.6c0,0,0,0.4-0.1,1c-0.2,1.3-0.5,3.6-0.7,5c-0.1-0.2-0.2-0.3-0.2-0.5c-0.6-1.6-1.1-3.1-1.6-4.7
		c-0.4-1.3-0.8-2.7-1.1-4c0-0.1,0-0.1,0-0.2c-0.3,0.1-0.7,0.2-1,0.3c-0.1,0-0.2,0.1-0.3,0.1c-1.8,0.5-3.5,1-5.3,1.5
		c-2.8,0.8-2.5,3.8-2.8,6.1c-0.5,3.9-1.1,7.7-1.3,11.6c0,0.4,0,0.7,0.2,1c0.2,0.5,0.8,0.8,1.7,0.8c4.7,0.1,9.3,0.1,14,0.2v-0.1
		l0-0.2c0-0.2,0.1-0.4,0.2-0.5c0.3-1,0.9-1.9,1.3-2.7c0.4-0.6,0.8-1.4,1.3-2.1c1.6-2.3,3.6-3.9,6-4.7C24.1,41.5,23.6,40.7,23.3,39.7
		z"/>
	<path class="st0" d="M23.7,19.9L23.7,19.9c0-0.1,0-0.2,0-0.3c-0.1-0.3-0.4-0.6-0.8-0.6c0,0-0.1,0-0.1,0c0-0.5,0.1-1,0.1-1.5
		c0-0.9,0.1-1.7,0.1-2.6c0-0.1,0-0.3,0-0.4c-0.1-0.7-0.4-1.4-0.9-1.9c-0.3-0.3-0.6-0.6-0.9-0.8c0,0,0,0,0,0c-0.1,0-0.1-0.1-0.2-0.1
		c-0.5-0.3-1.1-0.6-1.7-0.8c-0.1,0-0.2-0.1-0.3-0.1c-0.4-0.1-0.9-0.2-1.3-0.3c-0.4-0.1-0.9-0.1-1.3-0.1c0,0,0,0,0,0c0,0-0.1,0-0.1,0
		c0,0,0,0,0,0c-0.8-0.2-3.1-0.9-3.2-0.9c0,0.3,0.3,0.9,0.4,1.3c-0.1,0-0.2,0.1-0.3,0.1c-0.1,0-0.3-0.1-0.4-0.1
		c-0.6-0.2-1.2-0.3-1.9-0.5c-0.3,0-0.2-0.1-0.2,0.1c0.1,0.3,0.6,0.9,0.8,1.3c-0.1,0-0.1,0.1-0.2,0.1c0,0,0,0,0,0c-0.3,0-0.6,0-0.9,0
		h0c-0.2,0-0.2,0-0.2,0c-0.4,0-0.8,0-1.1,0.1c0.3,0.1,1,0.5,1.4,0.7c-0.5,0.5-0.8,1.2-0.9,1.9c0,0.1,0,0.3,0,0.4
		c0,0.9,0.1,1.7,0.1,2.6c0,0.5,0.1,1,0.1,1.5c0,0-0.1,0-0.1,0c-0.4,0-0.7,0.3-0.8,0.6c0,0,0,0.1,0,0.1c0,0,0,0,0,0c0,0,0,0.1,0,0.1
		v0c0,0.3,0,0.5,0,0.8v0c0,0,0,0.1,0,0.1c0,0.1,0,0.1,0,0.2c0,0.1,0,0.2,0.1,0.3c0,0.1,0,0.1,0,0.2c0,0.1,0.1,0.2,0.1,0.3
		c0.1,0.4,0.3,0.8,0.6,1.2c0.3,0.3,0.5,0.4,0.9,0.3c0,0,0.1,0,0.1,0c0.1,0.3,0.6,1.5,0.6,1.6c0.6,1.2,1.6,2.6,3,3
		c0.5,0.2,1,0.3,1.5,0.3h0c0,0,0,0,0.1,0c0.1,0,0.2,0,0.3,0c0,0,0.1,0,0.1,0c0.1,0,0.1,0,0.2,0h0.1c0.1,0,0.1,0,0.2,0
		c0,0,0.1,0,0.1,0c0.1,0,0.2,0,0.3,0c0,0,0,0,0.1,0h0c0.5-0.1,1-0.2,1.5-0.3c1.4-0.5,2.4-1.8,3-3c0.1-0.1,0.5-1.3,0.6-1.6
		c0,0,0,0,0.1,0c0.4,0.1,0.6,0.1,0.9-0.3c0.5-0.6,0.8-1.4,0.9-2.2v0C23.7,20.4,23.7,20.1,23.7,19.9z M16.1,27.4c-0.1,0-0.2,0-0.3,0
		c-1.5-0.1-2.8-0.8-3.6-2.1c-0.6-1-1.2-2.1-1.5-3.3c0-0.1,0-0.1-0.1-0.2c-0.2-0.9-0.3-1.8-0.4-2.7c0,0,0-0.1,0-0.1
		c0-0.1,0-0.1,0-0.2c0-0.1,0-0.1,0-0.2c0-0.2,0.1-0.3,0.2-0.4c0.3-0.5,0.9-0.8,1.5-0.9c1.4-0.4,2.8-0.9,4.2-1.5
		c0.1-0.1,0.3-0.1,0.4-0.2c0.4-0.1,0.7-0.3,1.1-0.4c0.2-0.1,0.9-0.5,1.1-0.4c0.1,0,2.8,2.9,3.1,3.1c0.3,0.3,0.3,0.7,0.2,1.1
		c0,0,0,0.1,0,0.1c-0.1,0.9-0.2,1.8-0.4,2.7c0,0.1,0,0.1-0.1,0.2c-0.3,1.2-0.9,2.2-1.5,3.3c-0.8,1.3-2.1,2-3.6,2.1
		C16.3,27.4,16.2,27.4,16.1,27.4z"/>
</g>
</svg>
