<?xml version="1.0" encoding="utf-8"?>
<!-- Generator: Adobe Illustrator 19.2.0, SVG Export Plug-In . SVG Version: 6.00 Build 0)  -->
<svg version="1.1" id="Layer_1" xmlns="http://www.w3.org/2000/svg" xmlns:xlink="http://www.w3.org/1999/xlink" x="0px" y="0px"
	 viewBox="0 0 512 512" style="enable-background:new 0 0 512 512;" xml:space="preserve">
<style type="text/css">
	.st0{fill:#FFFFFF;}
</style>
<path class="st0" d="M72.8,384.6v39.8c0,0,80.5-7,166.9,68.3v-49.3C239.6,443.3,157.4,367.2,72.8,384.6z M269.2,443.3v49.3
	c87.4-75.3,168.8-68.3,168.8-68.3v-39.8C352.3,367.2,269.2,443.3,269.2,443.3z M257.8,444h-7.5c-2.7,0-4.9,2.5-4.9,5.6v37.9
	c0,3.1,2.2,5.6,4.9,5.6h7.5c2.7,0,4.9-2.5,4.9-5.6v-37.9C262.7,446.5,260.5,444,257.8,444z"/>
<g>
	<path class="st0" d="M252.8,450.9c0.7,0.7,1.4,1,2.1,1c0.3,0,0.6-0.1,0.8-0.2l-1.7-2.9L252.8,450.9z"/>
	<path class="st0" d="M416.7,302.9c-16.6-14.7-93.6-33.3-111.8-40.8c-14.6-6-13.6-13.6-13.6-13.6l0.1-9.9
		c14-10.1,25.4-25.7,32.4-44.7c0.2,0,0.4,0,0.6,0c11.4,0,20.6-14.5,20.6-32.3c0-3-0.3-5.8-0.7-8.6c4.3-10.9,6.6-22.7,6.6-35.1
		c0-53-43-96-96-96c-7.4,0-14.6,0.8-21.6,2.4c-4,0.9-3.8,11.7-7.8,11.3c-4.6-0.5-12.9-3.7-16.7-1.7c-30.3,16.1-49.9,47.2-49.9,84
		c0,12.4,2.3,24.2,6.6,35.1c-0.5,2.7-0.7,5.6-0.7,8.6c0,17.9,9.2,32.3,20.6,32.3c0.2,0,0.4,0,0.6,0c6.6,18,17.2,33.1,30.4,43.2
		l0.1,11.4c0,0,1,7.6-13.6,13.6c-18.2,7.5-95.1,26.1-111.8,40.8c-13.8,12.2-19.5,22.6-18.1,46.8c0.3,6,0.8,11.4,1.3,16
		c84.2-16.2,165.4,59,165.4,59l7.9,7.6h12.2l9.4-7.6c0,0,80.3-73.5,164.4-59.5c0.5-4.5,1-9.7,1.3-15.5
		C436.2,325.5,430.6,315.1,416.7,302.9z M261.5,149c0-4.7,3.9-8.5,8.7-8.5H302c4.8,0,8.7,3.8,8.7,8.5v13c0,4.7-3.9,8.5-8.7,8.5
		h-31.7c-4.8,0-8.7-3.8-8.7-8.5V149z M205.8,170.6c-4.8,0-8.7-3.8-8.7-8.5v-13c0-4.7,3.9-8.5,8.7-8.5h31.7c4.8,0,8.7,3.8,8.7,8.5v13
		c0,4.7-3.9,8.5-8.7,8.5H205.8z"/>
</g>
</svg>
