<?xml version="1.0" ?><!DOCTYPE svg  PUBLIC '-//W3C//DTD SVG 1.1//EN'  'http://www.w3.org/Graphics/SVG/1.1/DTD/svg11.dtd'><svg enable-background="new 0 0 512 512" height="512px" id="Layer_1" version="1.1" viewBox="0 0 512 512" width="512px" xml:space="preserve" xmlns="http://www.w3.org/2000/svg" xmlns:xlink="http://www.w3.org/1999/xlink"><path d="M72.755,384.59v39.78c0,0,80.526-6.989,166.865,68.292v-49.336C239.62,443.326,157.433,367.217,72.755,384.59z   M269.174,443.326v49.336C356.526,417.381,438,424.37,438,424.37v-39.78C352.327,367.217,269.174,443.326,269.174,443.326z   M257.843,444.039h-7.455c-2.695,0-4.879,2.485-4.879,5.552v37.858c0,3.065,2.184,5.551,4.879,5.551h7.455  c2.694,0,4.879-2.485,4.879-5.551v-37.858C262.722,446.524,260.537,444.039,257.843,444.039z"/><g><path d="M252.808,450.895c0.709,0.658,1.405,1.029,2.08,0.979c0.287,0.021,0.568-0.06,0.846-0.219l-1.723-2.873L252.808,450.895z"/><path d="M416.734,302.879c-16.617-14.695-93.603-33.294-111.754-40.775c-14.619-6.026-13.591-13.59-13.591-13.59l0.074-9.875   c14.048-10.05,25.419-25.699,32.355-44.653c0.197,0.009,0.394,0.023,0.593,0.023c11.365,0,20.58-14.479,20.58-32.339   c0-2.962-0.259-5.827-0.733-8.552c4.268-10.868,6.612-22.701,6.612-35.083c0-53.039-42.999-96.035-96.035-96.035   c-7.413,0-14.629,0.84-21.56,2.429c-4.022,0.924-3.796,11.699-7.839,11.29c-4.647-0.469-12.916-3.685-16.692-1.674   c-30.32,16.145-49.944,47.244-49.944,83.991c0,12.382,2.345,24.215,6.612,35.083c-0.475,2.725-0.733,5.59-0.733,8.551   c0,17.86,9.215,32.339,20.579,32.339c0.198,0,0.395-0.015,0.591-0.023c6.605,18.049,17.234,33.095,30.364,43.169l0.086,11.358   c0,0,1.028,7.564-13.592,13.59c-18.151,7.481-95.136,26.08-111.755,40.775c-13.835,12.233-19.515,22.643-18.123,46.816   c0.347,6.01,0.828,11.373,1.348,16.021c84.173-16.239,165.443,59.004,165.443,59.004l7.937,7.568h12.228l9.39-7.568   c0,0,80.311-73.501,164.396-59.547c0.497-4.521,0.954-9.703,1.287-15.479C436.25,325.521,430.57,315.112,416.734,302.879z    M261.545,149.02c0-4.714,3.9-8.536,8.712-8.536h31.734c4.812,0,8.712,3.821,8.712,8.536v13.04c0,4.714-3.9,8.536-8.712,8.536   h-31.734c-4.812,0-8.712-3.822-8.712-8.536V149.02z M205.826,170.596c-4.812,0-8.711-3.822-8.711-8.536v-13.04   c0-4.714,3.9-8.536,8.711-8.536h31.735c4.812,0,8.711,3.821,8.711,8.536v13.04c0,4.714-3.9,8.536-8.711,8.536H205.826z"/></g></svg>